<?xml version="1.0" encoding="UTF-8"?>
<svg xmlns="http://www.w3.org/2000/svg" xmlns:xlink="http://www.w3.org/1999/xlink" viewBox="0 0 373 246" version="1.1">
<g id="surface1">
<path style=" stroke:none;fill-rule:nonzero;fill:rgb(0%,0%,0%);fill-opacity:1;" d="M 0 123 L 0 246 L 372.699219 246 L 372.699219 0 L 0 0 Z M 194.957031 16.949219 C 198.25 18.898438 201.316406 20.476562 201.765625 20.476562 C 202.214844 20.476562 205.359375 18.898438 208.652344 17.023438 C 212.019531 15.074219 214.863281 13.5 215.015625 13.5 C 215.539062 13.5 218.679688 27.824219 218.308594 28.273438 C 218.082031 28.5 215.988281 27.824219 213.742188 26.773438 C 211.421875 25.726562 209.550781 25.050781 209.550781 25.351562 C 209.550781 25.648438 211.722656 33.824219 214.339844 43.5 C 217.035156 53.175781 219.128906 61.199219 219.054688 61.199219 C 218.980469 61.273438 216.4375 61.5 213.515625 61.800781 C 208.277344 62.25 208.054688 62.175781 207.679688 60.601562 C 207.53125 59.625 206.332031 51.75 205.058594 43.125 C 203.789062 34.425781 202.515625 26.699219 202.292969 25.875 C 201.917969 24.601562 199.972656 35.773438 196.527344 58.726562 L 196.003906 62.25 L 190.617188 61.800781 C 187.621094 61.5 185.152344 61.199219 185.003906 61.125 C 184.855469 60.976562 186.949219 52.875 189.644531 43.050781 C 192.335938 33.226562 194.433594 25.050781 194.285156 24.898438 C 194.132812 24.824219 192.039062 25.574219 189.71875 26.625 C 187.324219 27.675781 185.226562 28.351562 185.003906 28.125 C 184.480469 27.675781 187.847656 13.5 188.445312 13.5 C 188.746094 13.5 191.664062 15.074219 194.957031 16.949219 Z M 107.769531 99.824219 C 112.933594 112.648438 117.347656 123.226562 117.574219 123.375 C 117.796875 123.523438 122.210938 113.175781 127.300781 100.273438 L 136.65625 76.875 L 161.878906 76.648438 L 187.171875 76.5 L 186.949219 87.523438 L 186.722656 98.625 L 180.960938 98.851562 L 175.125 99.074219 L 175.125 154.5 L 187.097656 154.5 L 187.097656 176.25 L 134.710938 176.25 L 134.710938 154.5 L 138.453125 154.5 C 140.847656 154.5 142.34375 154.125 142.644531 153.523438 C 142.792969 153 142.867188 144.675781 142.792969 135 L 142.570312 117.449219 L 131.71875 146.851562 L 120.867188 176.25 L 102.679688 176.25 L 89.882812 146.398438 L 77.160156 116.625 L 77.085938 135.523438 L 77.085938 154.5 L 86.8125 154.5 L 86.8125 176.25 L 44.902344 176.25 L 44.902344 154.5 L 56.878906 154.5 L 56.878906 99 L 44.902344 99 L 44.902344 76.5 L 98.414062 76.5 Z M 274.285156 77.324219 C 282.742188 78.300781 293.96875 82.050781 299.507812 85.800781 C 308.113281 91.5 313.726562 99.75 316.722656 110.925781 C 318.816406 119.023438 318.816406 133.800781 316.644531 141.976562 C 312.304688 158.550781 301.078125 169.125 282.519531 174.148438 C 276.90625 175.648438 274.4375 175.800781 246.445312 176.101562 L 216.285156 176.398438 L 216.285156 154.574219 L 221.375 154.351562 L 226.390625 154.125 L 226.613281 126.601562 L 226.761719 99.074219 L 221.75 98.851562 L 216.660156 98.625 L 216.4375 87.523438 L 216.210938 76.5 L 241.882812 76.5 C 256.027344 76.5 270.621094 76.875 274.285156 77.324219 Z M 70.796875 186.824219 C 71.097656 187.425781 71.472656 187.425781 72.070312 186.824219 C 72.519531 186.375 73.640625 186 74.613281 186 C 76.1875 186 76.335938 186.300781 76.335938 190.574219 C 76.335938 195.074219 76.335938 195.074219 74.316406 194.851562 C 72.820312 194.699219 72.144531 194.101562 71.847656 192.75 C 71.320312 190.425781 68.253906 189.75 66.832031 191.699219 C 65.558594 193.425781 65.558594 198.074219 66.832031 199.800781 C 67.953125 201.300781 70.949219 201.675781 74.316406 200.699219 C 76.261719 200.101562 76.335938 200.175781 76.335938 202.800781 C 76.335938 204.675781 75.886719 205.648438 74.914062 206.25 C 72.742188 207.375 65.335938 207.148438 62.863281 205.875 C 57.101562 202.875 56.277344 192.601562 61.367188 188.023438 C 63.089844 186.449219 64.363281 186 66.980469 186 C 68.777344 186 70.5 186.375 70.796875 186.824219 Z M 95.71875 187.949219 C 99.613281 191.25 100.507812 198.449219 97.515625 203.023438 C 95.792969 205.574219 92.652344 207 88.683594 207 C 82.171875 207 78.582031 203.25 78.582031 196.5 C 78.582031 189.226562 81.800781 186.074219 89.207031 186 C 92.652344 186 93.847656 186.375 95.71875 187.949219 Z M 115.027344 192.375 L 118.171875 198.375 L 118.246094 194.398438 C 118.246094 191.398438 117.945312 190.5 117.125 190.5 C 116.375 190.5 116 189.75 116 188.25 C 116 186 116.074219 186 120.117188 186 C 124.160156 186 124.234375 186 124.234375 188.25 C 124.234375 189.449219 123.933594 190.5 123.484375 190.5 C 123.035156 190.5 122.738281 193.726562 122.738281 198.75 L 122.738281 207.074219 L 118.472656 206.851562 L 114.203125 206.625 L 108.515625 196.125 L 108.515625 199.273438 C 108.515625 201.074219 108.890625 202.5 109.265625 202.5 C 109.714844 202.5 110.015625 203.476562 110.015625 204.75 C 110.015625 207 109.9375 207 105.898438 207 C 101.855469 207 101.78125 207 101.78125 204.75 C 101.78125 203.25 102.15625 202.5 102.902344 202.5 C 103.800781 202.5 104.027344 201.300781 104.027344 196.5 C 104.027344 191.699219 103.800781 190.5 102.902344 190.5 C 102.15625 190.5 101.78125 189.75 101.78125 188.25 L 101.78125 185.925781 L 106.871094 186.148438 L 111.886719 186.375 Z M 141.445312 189.074219 C 141.445312 191.773438 141.296875 192 139.277344 192 C 138.003906 192 136.804688 191.625 136.582031 191.25 C 135.984375 190.199219 132.242188 190.273438 132.617188 191.324219 C 132.765625 191.773438 134.710938 192.824219 136.957031 193.726562 C 141.519531 195.601562 143.242188 197.851562 142.570312 201.375 C 142.34375 202.574219 141.445312 204.300781 140.546875 205.273438 C 139.203125 206.773438 138.304688 206.925781 132.691406 206.851562 L 126.402344 206.851562 L 126.628906 203.699219 C 126.851562 201.148438 127.152344 200.550781 128.574219 200.398438 C 129.546875 200.25 130.96875 200.699219 131.71875 201.375 C 133.140625 202.648438 135.460938 202.648438 135.683594 201.375 C 135.757812 201 134.410156 200.175781 132.691406 199.5 C 128.050781 197.773438 126.480469 196.050781 126.480469 192.523438 C 126.480469 190.425781 127.003906 188.925781 128.050781 187.726562 C 129.546875 186.226562 130.371094 186.074219 135.535156 186.148438 L 141.445312 186.226562 Z M 155.667969 188.175781 C 155.667969 189.375 155.21875 190.5 154.542969 190.800781 C 153.71875 191.101562 153.421875 192.375 153.421875 195.601562 C 153.421875 200.398438 154.617188 202.800781 156.863281 202.351562 C 158.0625 202.125 158.285156 201.375 158.511719 196.273438 C 158.660156 191.476562 158.511719 190.5 157.539062 190.5 C 156.789062 190.5 156.414062 189.75 156.414062 188.25 L 156.414062 186 L 165.394531 186 L 165.394531 188.25 C 165.394531 189.75 165.019531 190.5 164.273438 190.5 C 163.375 190.5 163.148438 191.625 163.148438 196.425781 C 163.148438 201.75 162.925781 202.648438 161.203125 204.675781 C 159.484375 206.773438 158.808594 207 155.140625 207 C 151.625 207 150.726562 206.699219 148.855469 204.824219 C 146.835938 202.800781 146.683594 202.199219 146.683594 196.875 C 146.683594 192.523438 146.460938 191.101562 145.5625 190.800781 C 144.890625 190.5 144.441406 189.375 144.441406 188.175781 L 144.441406 186 L 155.667969 186 Z M 178.867188 188.25 C 178.867188 189.75 178.492188 190.5 177.742188 190.5 C 176.847656 190.5 176.621094 191.699219 176.621094 196.574219 C 176.621094 202.351562 176.695312 202.574219 178.269531 202.351562 C 179.316406 202.199219 180.0625 201.449219 180.363281 200.25 C 180.664062 199.050781 181.410156 198.300781 182.457031 198.148438 C 184.03125 197.925781 184.105469 198.148438 184.105469 202.425781 L 184.105469 207 L 167.640625 207 L 167.640625 204.75 C 167.640625 203.25 168.015625 202.5 168.761719 202.5 C 169.660156 202.5 169.886719 201.300781 169.886719 196.5 C 169.886719 191.699219 169.660156 190.5 168.761719 190.5 C 168.015625 190.5 167.640625 189.75 167.640625 188.25 L 167.640625 186 L 178.867188 186 Z M 205.058594 190.125 C 205.058594 194.023438 204.984375 194.25 203.1875 194.25 C 201.691406 194.25 201.316406 193.875 201.316406 192.375 C 201.316406 191.175781 200.871094 190.5 200.195312 190.5 C 199.296875 190.5 199.074219 191.699219 199.074219 196.5 C 199.074219 201.300781 199.296875 202.5 200.195312 202.5 C 200.945312 202.5 201.316406 203.25 201.316406 204.75 L 201.316406 207 L 189.34375 207 L 189.34375 204.75 C 189.34375 203.25 189.71875 202.5 190.464844 202.5 C 191.363281 202.5 191.589844 201.300781 191.589844 196.5 C 191.589844 190.648438 190.617188 188.550781 189.644531 192.375 C 189.34375 193.726562 188.671875 194.25 187.398438 194.25 C 185.75 194.25 185.601562 193.949219 185.601562 190.125 L 185.601562 186 L 205.058594 186 Z M 223.621094 188.773438 C 227.136719 201.148438 227.660156 202.5 228.632812 202.5 C 229.382812 202.5 229.757812 203.25 229.757812 204.75 L 229.757812 207 L 217.78125 207 L 217.78125 204.75 C 217.78125 203.476562 218.15625 202.5 218.53125 202.5 C 218.980469 202.5 219.28125 201.976562 219.28125 201.375 C 219.28125 200.625 218.457031 200.25 216.660156 200.25 C 214.863281 200.25 214.039062 200.625 214.039062 201.375 C 214.039062 201.976562 214.566406 202.5 215.164062 202.5 C 215.910156 202.5 216.285156 203.25 216.285156 204.75 L 216.285156 207 L 206.558594 207 L 206.558594 204.75 C 206.558594 203.324219 206.929688 202.5 207.605469 202.5 C 208.277344 202.5 209.324219 200.550781 210.375 197.398438 C 211.273438 194.625 212.171875 191.925781 212.394531 191.398438 C 212.542969 190.875 212.09375 190.5 211.121094 190.5 C 209.851562 190.5 209.550781 190.050781 209.550781 188.25 L 209.550781 186 L 222.796875 186 Z M 242.105469 189.75 C 243.152344 191.851562 244.648438 194.625 245.472656 195.976562 L 246.96875 198.375 L 246.96875 194.398438 C 246.96875 191.398438 246.671875 190.5 245.847656 190.5 C 245.097656 190.5 244.726562 189.75 244.726562 188.25 C 244.726562 186 244.800781 186 248.839844 186 C 252.882812 186 252.957031 186 252.957031 188.25 C 252.957031 189.75 252.582031 190.5 251.835938 190.5 C 250.9375 190.5 250.710938 191.925781 250.710938 198.75 L 250.710938 207 L 242.703125 207 L 241.058594 203.398438 C 240.160156 201.449219 238.738281 199.050781 237.988281 198 L 236.492188 196.125 L 236.492188 198.976562 C 236.492188 200.773438 236.867188 201.976562 237.617188 202.199219 C 238.289062 202.5 238.738281 203.625 238.738281 204.824219 C 238.738281 206.925781 238.664062 207 234.621094 207 C 230.582031 207 230.503906 207 230.503906 204.75 C 230.503906 203.25 230.878906 202.5 231.628906 202.5 C 232.527344 202.5 232.75 201.300781 232.75 196.5 C 232.75 191.699219 232.527344 190.5 231.628906 190.5 C 230.878906 190.5 230.503906 189.75 230.503906 188.25 L 230.503906 186 L 240.234375 186 Z M 267.625 186.824219 C 267.925781 187.425781 268.300781 187.425781 268.898438 186.824219 C 269.347656 186.375 270.46875 186 271.441406 186 C 273.015625 186 273.164062 186.300781 273.164062 190.574219 C 273.164062 195.074219 273.164062 195.074219 271.144531 194.851562 C 269.648438 194.699219 268.972656 194.101562 268.671875 192.75 C 268.148438 190.425781 265.082031 189.75 263.660156 191.699219 C 262.386719 193.425781 262.386719 198.074219 263.660156 199.800781 C 264.78125 201.300781 267.777344 201.675781 271.144531 200.699219 C 273.089844 200.101562 273.164062 200.175781 273.164062 202.800781 C 273.164062 204.675781 272.714844 205.648438 271.742188 206.25 C 269.570312 207.375 262.164062 207.148438 259.691406 205.875 C 253.929688 202.875 253.105469 192.601562 258.195312 188.023438 C 259.917969 186.449219 261.191406 186 263.808594 186 C 265.605469 186 267.328125 186.375 267.625 186.824219 Z M 285.664062 189 C 285.214844 192.601562 286.785156 194.550781 288.132812 192.074219 C 288.804688 190.800781 288.730469 190.5 287.757812 190.5 C 286.859375 190.5 286.636719 189.898438 286.785156 188.398438 C 287.007812 186.449219 287.234375 186.375 291.351562 186.148438 L 295.617188 185.925781 L 295.617188 188.25 C 295.617188 189.898438 295.242188 190.5 294.34375 190.5 C 293.519531 190.5 292.171875 192 290.976562 194.175781 C 288.65625 198.226562 288.207031 202.5 290.003906 202.5 C 290.75 202.5 291.125 203.25 291.125 204.75 L 291.125 207 L 279.898438 207 L 279.898438 204.75 C 279.898438 203.476562 280.273438 202.5 280.648438 202.5 C 281.097656 202.5 281.394531 201.523438 281.394531 200.25 C 281.394531 198 276.757812 190.5 275.335938 190.5 C 274.960938 190.5 274.660156 189.449219 274.660156 188.25 L 274.660156 186 L 286.113281 186 Z M 115.253906 219.074219 C 115.253906 221.773438 115.101562 222 113.15625 222 C 112.035156 222 110.6875 221.625 110.238281 221.175781 C 109.339844 220.273438 105.898438 220.5 105.898438 221.550781 C 105.898438 221.925781 107.394531 222.675781 109.191406 223.199219 C 113.832031 224.550781 116 226.875 116 230.398438 C 116 232.5 115.476562 233.851562 114.203125 235.125 C 112.558594 236.699219 111.808594 236.925781 106.347656 236.851562 L 100.285156 236.851562 L 100.285156 233.550781 C 100.285156 230.550781 100.433594 230.25 102.082031 230.25 C 103.054688 230.25 104.25 230.773438 104.773438 231.375 C 105.898438 232.726562 109.265625 232.875 109.265625 231.523438 C 109.265625 231 107.621094 230.023438 105.523438 229.273438 C 99.761719 227.175781 97.664062 221.550781 101.332031 217.875 C 102.980469 216.300781 103.726562 216.074219 109.191406 216.148438 L 115.253906 216.148438 Z M 136.207031 220.125 C 136.207031 224.023438 136.132812 224.25 134.335938 224.25 C 132.988281 224.25 132.390625 223.726562 132.015625 222.375 C 131.71875 221.023438 131.042969 220.5 129.773438 220.5 C 128.351562 220.5 127.976562 220.875 127.976562 222.375 C 127.976562 223.726562 128.351562 224.25 129.472656 224.25 C 130.445312 224.25 130.96875 224.773438 130.96875 225.75 C 130.96875 226.726562 130.445312 227.25 129.472656 227.25 C 128.273438 227.25 127.976562 227.773438 127.976562 229.875 C 127.976562 232.125 128.199219 232.5 129.773438 232.5 C 131.195312 232.5 131.71875 231.976562 132.089844 230.25 C 132.464844 228.523438 132.988281 228 134.410156 228 C 136.132812 228 136.207031 228.226562 136.207031 232.5 L 136.207031 237 L 118.246094 237 L 118.246094 234.824219 C 118.246094 233.324219 118.695312 232.574219 119.742188 232.273438 C 121.089844 231.898438 121.238281 231.226562 121.238281 226.5 C 121.238281 221.773438 121.089844 221.101562 119.742188 220.726562 C 118.695312 220.425781 118.246094 219.675781 118.246094 218.175781 L 118.246094 216 L 136.207031 216 Z M 155.515625 217.273438 C 158.0625 219.449219 158.359375 222.375 156.265625 224.476562 C 154.46875 226.273438 154.46875 226.351562 155.816406 228 C 156.5625 228.898438 157.164062 230.324219 157.164062 231.074219 C 157.164062 231.976562 157.6875 232.5 158.660156 232.5 C 159.855469 232.5 160.15625 233.023438 160.15625 234.75 C 160.15625 236.925781 160.082031 237 156.488281 237 C 152.296875 237 151.550781 236.324219 150.652344 231.75 C 150.128906 229.050781 149.679688 228.300781 148.332031 228.148438 C 146.910156 227.925781 146.683594 228.226562 146.683594 230.175781 C 146.683594 231.75 147.058594 232.5 147.808594 232.5 C 148.554688 232.5 148.929688 233.25 148.929688 234.75 L 148.929688 237 L 137.703125 237 L 137.703125 234.75 C 137.703125 233.25 138.078125 232.5 138.828125 232.5 C 139.726562 232.5 139.949219 231.300781 139.949219 226.5 C 139.949219 221.699219 139.726562 220.5 138.828125 220.5 C 138.078125 220.5 137.703125 219.75 137.703125 218.25 L 137.703125 216 L 145.863281 216 C 152.523438 216 154.320312 216.226562 155.515625 217.273438 Z M 171.382812 218.175781 C 171.382812 219.375 171.082031 220.5 170.632812 220.648438 C 170.183594 220.800781 170.484375 222.675781 171.308594 225.375 L 172.65625 229.875 L 173.628906 225.449219 C 174.449219 222 174.449219 220.875 173.777344 220.648438 C 173.253906 220.5 172.878906 219.375 172.878906 218.175781 L 172.878906 216 L 182.609375 216 L 182.609375 218.25 C 182.609375 219.898438 182.234375 220.5 181.261719 220.5 C 180.136719 220.5 179.390625 222.148438 177.371094 228.75 L 174.898438 237 L 166.96875 237 L 165.769531 232.648438 C 165.097656 230.324219 164.046875 226.574219 163.449219 224.398438 C 162.699219 222.074219 161.878906 220.5 161.203125 220.5 C 160.53125 220.5 160.15625 219.675781 160.15625 218.25 L 160.15625 216 L 171.382812 216 Z M 195.332031 218.25 C 195.332031 219.449219 195.03125 220.5 194.582031 220.5 C 194.132812 220.5 193.835938 222.976562 193.835938 226.5 C 193.835938 230.023438 194.132812 232.5 194.582031 232.5 C 195.03125 232.5 195.332031 233.476562 195.332031 234.75 L 195.332031 237 L 184.855469 237 L 184.855469 234.824219 C 184.855469 233.625 185.300781 232.5 185.976562 232.199219 C 187.621094 231.601562 187.621094 221.398438 185.976562 220.800781 C 185.300781 220.5 184.855469 219.375 184.855469 218.175781 L 184.855469 216 L 195.332031 216 Z M 210.222656 216.898438 C 211.046875 217.648438 211.273438 217.648438 211.570312 216.898438 C 211.796875 216.449219 212.769531 216 213.742188 216 C 215.460938 216 215.539062 216.226562 215.539062 220.5 C 215.539062 224.699219 215.386719 225 213.816406 225 C 212.617188 225 211.871094 224.324219 211.273438 222.75 C 209.699219 218.625 205.058594 220.800781 205.058594 225.675781 C 205.058594 228.824219 205.585938 229.726562 207.902344 230.925781 C 209.175781 231.601562 210.222656 231.675781 211.945312 231.074219 C 215.3125 229.875 215.539062 230.023438 215.539062 232.875 C 215.539062 236.175781 214.039062 237 207.980469 237 C 203.636719 237 203.265625 236.851562 200.496094 234.074219 C 197.800781 231.375 197.578125 230.851562 197.578125 226.949219 C 197.578125 222.300781 198.921875 219 201.46875 217.199219 C 203.488281 215.773438 208.878906 215.625 210.222656 216.898438 Z M 235.746094 220.125 C 235.746094 223.949219 235.59375 224.25 233.949219 224.25 C 232.675781 224.25 232.003906 223.726562 231.703125 222.375 C 231.328125 221.023438 230.730469 220.5 229.382812 220.5 C 227.886719 220.5 227.511719 220.875 227.511719 222.375 C 227.511719 223.726562 227.886719 224.25 229.007812 224.25 C 229.980469 224.25 230.503906 224.773438 230.503906 225.75 C 230.503906 226.726562 229.980469 227.25 229.007812 227.25 C 227.8125 227.25 227.511719 227.773438 227.511719 229.875 C 227.511719 232.199219 227.738281 232.5 229.382812 232.5 C 230.878906 232.5 231.402344 232.050781 231.777344 230.25 C 232.078125 228.523438 232.601562 228 233.949219 228 C 235.667969 228 235.746094 228.300781 235.746094 232.5 L 235.746094 237 L 217.78125 237 L 217.78125 234.75 C 217.78125 233.023438 218.082031 232.5 219.28125 232.5 C 220.625 232.5 220.777344 231.976562 220.777344 226.5 C 220.777344 221.023438 220.625 220.5 219.28125 220.5 C 218.082031 220.5 217.78125 219.976562 217.78125 218.25 L 217.78125 216 L 235.746094 216 Z M 252.210938 219.074219 C 252.210938 221.773438 252.058594 222 250.039062 222 C 248.765625 222 247.570312 221.625 247.34375 221.25 C 246.746094 220.199219 243.003906 220.273438 243.378906 221.324219 C 243.527344 221.773438 245.472656 222.824219 247.71875 223.726562 C 252.285156 225.601562 254.003906 227.851562 253.332031 231.375 C 253.105469 232.574219 252.210938 234.300781 251.3125 235.273438 C 249.964844 236.773438 249.066406 236.925781 243.453125 236.851562 L 237.167969 236.851562 L 237.390625 233.699219 C 237.617188 231.148438 237.914062 230.550781 239.335938 230.398438 C 240.308594 230.25 241.730469 230.699219 242.480469 231.375 C 243.902344 232.648438 246.222656 232.648438 246.445312 231.375 C 246.519531 231 245.175781 230.175781 243.453125 229.5 C 238.8125 227.773438 237.242188 226.050781 237.242188 222.523438 C 237.242188 220.425781 237.765625 218.925781 238.8125 217.726562 C 240.308594 216.226562 241.132812 216.074219 246.296875 216.148438 L 252.210938 216.226562 Z M 252.210938 219.074219 "/>
<path style=" stroke:none;fill-rule:nonzero;fill:rgb(0%,0%,0%);fill-opacity:1;" d="M 258.347656 126.449219 L 258.570312 154.125 L 262.910156 153.976562 C 268.75 153.75 271.742188 152.699219 274.8125 149.699219 C 279.972656 144.675781 282.292969 137.175781 282.21875 125.625 C 282.21875 113.25 278.328125 103.949219 271.964844 100.875 C 270.246094 99.976562 266.804688 99.300781 263.585938 99.148438 L 258.195312 98.851562 Z M 258.347656 126.449219 "/>
<path style=" stroke:none;fill-rule:nonzero;fill:rgb(0%,0%,0%);fill-opacity:1;" d="M 86.8125 191.925781 C 86.441406 192.75 86.066406 194.773438 86.066406 196.5 C 86.066406 202.875 89.808594 204.976562 91.304688 199.5 C 92.875 193.5 89.285156 187.351562 86.8125 191.925781 Z M 86.8125 191.925781 "/>
<path style=" stroke:none;fill-rule:nonzero;fill:rgb(0%,0%,0%);fill-opacity:1;" d="M 216.0625 192.898438 C 215.761719 193.949219 215.3125 195.375 215.089844 196.050781 C 214.789062 196.949219 215.089844 197.25 216.210938 197.25 C 217.859375 197.25 218.230469 195.300781 217.109375 192.375 C 216.585938 191.023438 216.511719 191.101562 216.0625 192.898438 Z M 216.0625 192.898438 "/>
<path style=" stroke:none;fill-rule:nonzero;fill:rgb(0%,0%,0%);fill-opacity:1;" d="M 146.683594 222.824219 C 146.683594 224.851562 146.910156 225.074219 148.707031 224.851562 C 152.375 224.476562 151.699219 220.574219 148.03125 220.5 C 147.058594 220.5 146.683594 221.101562 146.683594 222.824219 Z M 146.683594 222.824219 "/>
</g>
</svg>
